<?xml version="1.0" encoding="UTF-8"?>
<svg width="825px" height="148px" viewBox="0 0 825 148" version="1.1" xmlns="http://www.w3.org/2000/svg" xmlns:xlink="http://www.w3.org/1999/xlink">
    <title>coolon-logo-simple</title>
    <g id="Page-1" stroke="none" stroke-width="1" fill="none" fill-rule="evenodd">
        <g id="coolon-logo-simple" fill="#ffffff" fill-rule="nonzero">
            <path d="M295.7,96 C289.7,120.3 268.6,136.4 243.8,136.4 C211.6,136.4 189.6,110.7 189.6,82.9 C189.6,56.7 209.9,29.7 243.5,29.7 C275.7,29.7 292.9,54.6 295.7,70.7 L268.2,70.7 C265.3,63.1 257.5,52.8 243.4,52.8 C225.8,52.8 215.9,68.2 215.9,82.8 C215.9,98.4 226.5,113.4 243.5,113.4 C259.9,113.4 266.6,99.7 268.2,96 L295.7,96 L295.7,96 Z" id="Path"></path>
            <path d="M360.3,29.8 C392,29.8 414.6,54.5 414.6,83.1 C414.6,111.7 392.1,136.4 360.2,136.4 C327.9,136.4 306.2,110.7 306.2,84.3 C306.2,77.5 307.2,69.9 310.2,62.4 C315.6,49.1 331.6,29.8 360.3,29.8 Z M360.7,113.4 C379.3,113.4 388.3,96.5 388.3,83.3 C388.3,70 379.3,52.9 360.4,52.9 C342.2,52.9 332.4,68.5 332.4,82.9 C332.4,98.7 343.1,113.4 360.7,113.4 Z" id="Shape"></path>
            <path d="M479.8,29.8 C511.5,29.8 534.1,54.5 534.1,83.1 C534.1,111.7 511.6,136.4 479.7,136.4 C447.3,136.4 425.7,110.7 425.7,84.3 C425.7,77.5 426.7,69.9 429.7,62.4 C435.1,49.1 451.1,29.8 479.8,29.8 Z M480.2,113.4 C498.8,113.4 507.8,96.5 507.8,83.3 C507.8,70 498.8,52.9 479.9,52.9 C461.7,52.9 451.9,68.5 451.9,82.9 C451.9,98.7 462.6,113.4 480.2,113.4 Z" id="Shape"></path>
            <polygon id="Path" points="550.3 31.7 576.5 31.7 576.5 111.4 606.9 111.4 606.9 134.4 550.3 134.4"></polygon>
            <path d="M668.3,29.8 C700,29.8 722.6,54.5 722.6,83.1 C722.6,111.7 700.1,136.4 668.2,136.4 C635.9,136.4 614.2,110.7 614.2,84.3 C614.2,77.5 615.2,69.9 618.2,62.4 C623.6,49.1 639.5,29.8 668.3,29.8 Z M668.7,113.4 C687.3,113.4 696.3,96.5 696.3,83.3 C696.3,70 687.3,52.9 668.4,52.9 C650.2,52.9 640.4,68.5 640.4,82.9 C640.4,98.7 651.1,113.4 668.7,113.4 Z" id="Shape"></path>
            <polygon id="Path" points="738.1 31.7 760.7 31.7 800.4 96.3 800.4 31.7 824.7 31.7 824.7 134.4 801.9 134.4 762.7 71.9 762.7 134.4 738 134.4 738 31.7"></polygon>
            <path d="M37.2,138.1 C31.4,127.6 28.1,115.5 28.1,102.6 C28.1,62.1 61,29.2 101.5,29.2 C114.6,29.2 127,32.7 137.6,38.7 C143.4,49.2 146.7,61.3 146.7,74.2 C146.7,114.7 113.8,147.6 73.3,147.6 C60.2,147.6 47.9,144.1 37.2,138.1 Z" id="Path"></path>
            <path d="M33.7,136.1 C27.2,125.1 23.5,112.4 23.5,98.7 C23.5,58.2 56.4,25.3 96.9,25.3 C111.4,25.3 125.1,29.5 136.5,36.8 C123.7,15.3 100.2,0.9 73.4,0.9 C32.9,0.9 -2.84217094e-14,33.8 -2.84217094e-14,74.3 C-2.84217094e-14,100.3 13.4,123.1 33.7,136.1 Z" id="Path"></path>
            <path d="M170.4,37.9 C170.4,44.9 164.7,50.6 157.8,50.6 C150.8,50.6 145.2,44.9 145.2,37.9 C145.2,30.9 150.9,25.3 157.8,25.3 C164.7,25.2 170.4,30.9 170.4,37.9 Z" id="Path"></path>
            <path d="M171.1,66.7 C171.1,71.2 167.4,74.9 162.9,74.9 C158.4,74.9 154.7,71.2 154.7,66.7 C154.7,62.2 158.4,58.5 162.9,58.5 C167.4,58.5 171.1,62.1 171.1,66.7 Z" id="Path"></path>
            <path d="M164.3,87.8 C164.3,90.9 161.8,93.5 158.6,93.5 C155.5,93.5 152.9,91 152.9,87.8 C152.9,84.7 155.4,82.1 158.6,82.1 C161.8,82.1 164.3,84.6 164.3,87.8 Z" id="Path"></path>
        </g>
    </g>
</svg>